<svg xmlns="http://www.w3.org/2000/svg" viewBox="0 0 512 512" fill="none">
  <rect width="512" height="512" rx="64" fill="#18181b"/>
  <!-- Kali-style flowing dragon silhouette — smooth curves, facing right -->
  <g transform="translate(56,72) scale(0.78)">
    <path d="
      M 120 420
      C 100 380, 90 340, 100 300
      C 110 260, 130 240, 150 220
      C 160 210, 165 195, 170 180
      C 175 165, 185 150, 200 140
      C 215 130, 230 125, 245 120
      C 255 117, 260 110, 265 100
      C 270 90, 280 80, 295 75
      C 310 70, 320 72, 330 78
      L 345 65
      C 350 58, 360 52, 370 55
      C 365 62, 358 70, 355 78
      L 375 68
      C 382 60, 392 56, 400 60
      C 395 68, 385 76, 378 82
      C 390 80, 400 78, 408 82
      C 402 90, 392 95, 382 96
      C 375 98, 365 95, 358 90
      C 350 100, 345 112, 350 125
      C 355 138, 365 145, 375 155
      C 385 165, 390 178, 385 192
      C 380 206, 368 215, 355 220
      C 365 230, 378 238, 390 248
      C 402 258, 410 272, 405 288
      C 400 304, 385 312, 370 315
      C 355 318, 340 315, 328 308
      C 316 301, 308 290, 300 280
      C 290 268, 275 260, 260 258
      C 245 256, 230 260, 218 268
      C 206 276, 198 288, 190 302
      C 182 316, 170 335, 155 350
      C 140 365, 125 375, 115 395
      C 110 405, 112 415, 120 420
      Z
    " fill="#a1a1aa"/>
    <!-- Eye -->
    <circle cx="348" cy="88" r="6" fill="#18181b"/>
    <!-- Nostril -->
    <circle cx="398" cy="86" r="3" fill="#18181b"/>
    <!-- Wing detail lines -->
    <path d="M 250 180 C 280 160, 310 155, 340 165" stroke="#18181b" stroke-width="2" fill="none" opacity="0.4"/>
    <path d="M 260 200 C 285 185, 315 180, 338 188" stroke="#18181b" stroke-width="2" fill="none" opacity="0.3"/>
  </g>
</svg>