<svg xmlns="http://www.w3.org/2000/svg" viewBox="0 0 2400 960" fill="none">
  <rect width="2400" height="960" fill="#09090b"/>
  
  <!-- Subtle hex grid background like Kali -->
  <g stroke="#4ade80" opacity="0.03" stroke-width="1">
    <line x1="0" y1="160" x2="2400" y2="160"/>
    <line x1="0" y1="320" x2="2400" y2="320"/>
    <line x1="0" y1="480" x2="2400" y2="480"/>
    <line x1="0" y1="640" x2="2400" y2="640"/>
    <line x1="0" y1="800" x2="2400" y2="800"/>
    <line x1="400" y1="0" x2="400" y2="960"/>
    <line x1="800" y1="0" x2="800" y2="960"/>
    <line x1="1200" y1="0" x2="1200" y2="960"/>
    <line x1="1600" y1="0" x2="1600" y2="960"/>
    <line x1="2000" y1="0" x2="2000" y2="960"/>
  </g>

  <!-- Dragon eye — centered -->
  <ellipse cx="1200" cy="380" rx="280" ry="160" stroke="#4ade80" stroke-width="20" fill="none" opacity="0.7"/>
  <path d="M1200 250 L1225 380 L1200 510 L1175 380 Z" fill="#4ade80" opacity="0.85"/>
  
  <!-- Accent lines extending from eye -->
  <line x1="880" y1="380" x2="940" y2="380" stroke="#4ade80" stroke-width="10" stroke-linecap="round" opacity="0.3"/>
  <line x1="1460" y1="380" x2="1520" y2="380" stroke="#4ade80" stroke-width="10" stroke-linecap="round" opacity="0.3"/>

  <!-- $GHIDRA text -->
  <text x="1200" y="700" text-anchor="middle" font-family="monospace" font-size="80" font-weight="700" fill="#4ade80" letter-spacing="0.3em" opacity="0.85">$GHIDRA</text>
  
  <!-- Tagline -->
  <text x="1200" y="780" text-anchor="middle" font-family="monospace" font-size="28" fill="#52525b" letter-spacing="0.15em">HOSTED DECOMPILATION ON SOLANA</text>
</svg>