<svg xmlns="http://www.w3.org/2000/svg" viewBox="0 0 2400 960" fill="none">
  <rect width="2400" height="960" fill="#09090b"/>
  
  <!-- Subtle grid -->
  <g stroke="#27272a" opacity="0.3" stroke-width="0.5">
    <line x1="0" y1="192" x2="2400" y2="192"/>
    <line x1="0" y1="384" x2="2400" y2="384"/>
    <line x1="0" y1="576" x2="2400" y2="576"/>
    <line x1="0" y1="768" x2="2400" y2="768"/>
    <line x1="480" y1="0" x2="480" y2="960"/>
    <line x1="960" y1="0" x2="960" y2="960"/>
    <line x1="1440" y1="0" x2="1440" y2="960"/>
    <line x1="1920" y1="0" x2="1920" y2="960"/>
  </g>

  <!-- Large dragon silhouette — centered -->
  <g transform="translate(880,40) scale(1.5)">
    <path d="
      M 120 420 C 100 380, 90 340, 100 300 C 110 260, 130 240, 150 220
      C 160 210, 165 195, 170 180 C 175 165, 185 150, 200 140
      C 215 130, 230 125, 245 120 C 255 117, 260 110, 265 100
      C 270 90, 280 80, 295 75 C 310 70, 320 72, 330 78
      L 345 65 C 350 58, 360 52, 370 55 C 365 62, 358 70, 355 78
      L 375 68 C 382 60, 392 56, 400 60 C 395 68, 385 76, 378 82
      C 390 80, 400 78, 408 82 C 402 90, 392 95, 382 96
      C 375 98, 365 95, 358 90 C 350 100, 345 112, 350 125
      C 355 138, 365 145, 375 155 C 385 165, 390 178, 385 192
      C 380 206, 368 215, 355 220 C 365 230, 378 238, 390 248
      C 402 258, 410 272, 405 288 C 400 304, 385 312, 370 315
      C 355 318, 340 315, 328 308 C 316 301, 308 290, 300 280
      C 290 268, 275 260, 260 258 C 245 256, 230 260, 218 268
      C 206 276, 198 288, 190 302 C 182 316, 170 335, 155 350
      C 140 365, 125 375, 115 395 C 110 405, 112 415, 120 420 Z
    " fill="#a1a1aa" opacity="0.85"/>
    <circle cx="348" cy="88" r="6" fill="#09090b"/>
    <circle cx="398" cy="86" r="3" fill="#09090b"/>
    <path d="M 250 180 C 280 160, 310 155, 340 165" stroke="#09090b" stroke-width="2" fill="none" opacity="0.4"/>
    <path d="M 260 200 C 285 185, 315 180, 338 188" stroke="#09090b" stroke-width="2" fill="none" opacity="0.3"/>
  </g>

  <!-- $GHIDRA -->
  <text x="1200" y="780" text-anchor="middle" font-family="monospace" font-size="84" font-weight="700" fill="#d4d4d8" letter-spacing="0.25em" opacity="0.9">$GHIDRA</text>
  
  <!-- Tagline -->
  <text x="1200" y="860" text-anchor="middle" font-family="monospace" font-size="28" fill="#52525b" letter-spacing="0.15em">HOSTED DECOMPILATION ON SOLANA</text>
</svg>