<svg xmlns="http://www.w3.org/2000/svg" viewBox="0 0 2400 960" fill="none">
  <rect width="2400" height="960" fill="#09090b"/>
  
  <!-- Kali-style subtle circuit/grid -->
  <g stroke="#4ade80" opacity="0.035" stroke-width="1">
    <line x1="0" y1="160" x2="2400" y2="160"/>
    <line x1="0" y1="320" x2="2400" y2="320"/>
    <line x1="0" y1="480" x2="2400" y2="480"/>
    <line x1="0" y1="640" x2="2400" y2="640"/>
    <line x1="0" y1="800" x2="2400" y2="800"/>
    <line x1="400" y1="0" x2="400" y2="960"/>
    <line x1="800" y1="0" x2="800" y2="960"/>
    <line x1="1200" y1="0" x2="1200" y2="960"/>
    <line x1="1600" y1="0" x2="1600" y2="960"/>
    <line x1="2000" y1="0" x2="2000" y2="960"/>
  </g>

  <!-- Large Kali-style angular dragon — centered -->
  <g fill="#4ade80" opacity="0.8" transform="translate(900,80) scale(2.5)">
    <polygon points="40,140 60,100 75,115 90,80 105,95 120,60 150,30 165,50 180,20 195,40 210,10 230,30 215,55 200,65 215,80 200,95 185,80 170,95 150,110 135,95 120,110 105,125 120,140 105,150 75,150 60,140"/>
    <circle cx="170" cy="55" r="8" fill="#09090b"/>
    <!-- Horns -->
    <polygon points="180,20 200,0 195,25" opacity="0.6"/>
    <polygon points="210,10 240,0 228,28" opacity="0.5"/>
    <!-- Jaw teeth -->
    <polygon points="40,140 50,155 60,140" opacity="0.6"/>
    <polygon points="55,142 65,158 72,142" opacity="0.5"/>
  </g>

  <!-- $GHIDRA text -->
  <text x="1200" y="740" text-anchor="middle" font-family="monospace" font-size="84" font-weight="700" fill="#4ade80" letter-spacing="0.25em" opacity="0.9">$GHIDRA</text>
  
  <!-- Tagline -->
  <text x="1200" y="820" text-anchor="middle" font-family="monospace" font-size="28" fill="#52525b" letter-spacing="0.15em">HOSTED DECOMPILATION ON SOLANA</text>
</svg>