<svg xmlns="http://www.w3.org/2000/svg" viewBox="0 0 32 32">
  <rect width="32" height="32" rx="6" fill="#18181b"/>
  <!-- Dragon head silhouette — side profile, facing right -->
  <g fill="#a1a1aa" transform="translate(4,3) scale(0.75)">
    <!-- Neck/body -->
    <path d="M8 28 Q6 22 8 16 Q10 12 12 10 L14 8 Q16 6 18 7 L20 8 Q22 7 23 8 L24 10 Q26 8 27 9 L28 11 Q30 10 30 12 Q30 14 28 15 L26 15 Q28 17 27 19 Q26 20 24 20 L22 19 Q20 22 16 24 Q12 27 8 28Z"/>
    <!-- Eye -->
    <circle cx="24" cy="13" r="1.5" fill="#ef4444"/>
    <!-- Horn/crest -->
    <path d="M20 8 L18 3 Q19 4 21 5 L23 8" fill="#71717a"/>
    <path d="M24 10 L23 5 Q24 6 26 7 L27 9" fill="#71717a"/>
    <!-- Jaw detail -->
    <path d="M28 15 L30 16 Q29 17 27 17 L26 15" fill="#a1a1aa"/>
  </g>
</svg>
